<?xml version="1.0" encoding="UTF-8"?><svg id="Layer_1" xmlns="http://www.w3.org/2000/svg" viewBox="0 0 814.5 164.19"><defs><style>.cls-1{fill:#ff9800;}.cls-2{fill:#1a237e;}</style></defs><g><path class="cls-2" d="M143.24,23.29h18.72v8.85c6.04-7.22,14.74-10.32,23.58-10.32,20.34,0,33.31,17.1,33.31,38.18s-13.27,38.47-33.61,38.47c-8.55,0-16.95-3.39-22.26-9.88v29.63h-19.75V23.29Zm55.42,36.85c0-11.65-7.52-20.05-18.28-20.05-10.02,0-17.54,8.25-17.54,20.05s7.37,20.04,17.54,20.04c10.76,0,18.28-8.4,18.28-20.04Z"/><path class="cls-2" d="M229.47,60.14c0-21.23,12.97-38.33,33.31-38.33,8.55,0,17.69,3.39,22.99,10.47v-8.99h19.31V96.99h-19.31v-8.85c-5.16,7.08-14.45,10.32-22.99,10.32-20.34,0-33.31-17.1-33.31-38.32Zm55.87,0c0-11.5-7.37-20.05-17.54-20.05s-18.28,8.55-18.28,20.05,7.67,20.04,18.28,20.04,17.54-8.25,17.54-20.04Z"/><path class="cls-2" d="M320.12,23.29h19.46v14.15c2.06-6.04,9.58-15.62,25.8-15.62v21.52c-17.1,0-25.5,7.81-25.5,25.35v28.3h-19.75V23.29Z"/><path class="cls-2" d="M372.3,88.44l7.08-15.18c5.01,3.83,11.94,7.81,22.99,7.81,4.57,0,12.09-1.77,12.09-6.19s-6.34-5.46-12.68-7.22c-14.59-3.83-26.53-8.7-26.53-22.85,0-15.04,14.74-23,28.6-23,12.09,0,19.75,2.95,27.42,7.37l-6.64,14.74c-7.22-3.54-14-5.16-20.49-5.16-4.57,0-8.84,2.06-8.84,5.16,0,4.13,6.19,5.45,12.97,6.93,12.53,2.95,26.24,8.4,26.24,23.44,0,18.13-18.43,24.17-32.14,24.17-15.77,0-25.94-6.19-30.07-10.02Z"/><path class="cls-2" d="M444.08,60.14c0-21.23,16.51-38.33,38.18-38.33,20.05,0,35.82,17.1,35.82,38.03,0,3.54-.44,7.08-.44,7.08h-53.51c2.36,10.17,10.76,15.03,20.49,15.03,7.07,0,14.45-2.06,19.9-5.75l7.37,14.15c-8.25,5.45-17.83,8.11-27.42,8.11-21.52,0-40.39-14-40.39-38.32Zm55.42-6.34c-1.47-9.29-8.84-15.48-17.83-15.48s-15.92,6.19-17.84,15.48h35.67Z"/><path class="cls-2" d="M528.84,60.14c0-21.23,12.97-38.33,33.32-38.33,8.55,0,17.69,3.39,22.99,10.47v-8.99h19.31V96.99h-19.31v-8.85c-5.16,7.08-14.45,10.32-22.99,10.32-20.34,0-33.32-17.1-33.32-38.32Zm55.87,0c0-11.5-7.37-20.05-17.54-20.05s-18.28,8.55-18.28,20.05,7.67,20.04,18.28,20.04,17.54-8.25,17.54-20.04Z"/><path class="cls-2" d="M638.21,88.15v8.85h-18.72V0h19.75V31.54c5.31-6.34,13.71-9.73,22.26-9.73,20.34,0,33.61,17.1,33.61,38.33s-12.97,38.32-33.31,38.32c-8.85,0-18.13-3.24-23.58-10.32Zm36.85-28c0-11.5-7.67-20.05-18.28-20.05s-17.54,8.55-17.54,20.05,7.52,20.04,17.54,20.04c10.61,0,18.28-8.4,18.28-20.04Z"/><path class="cls-2" d="M707.93,0h19.75V96.99h-19.75V0Z"/><path class="cls-2" d="M740.5,60.14c0-21.23,16.51-38.33,38.18-38.33,20.04,0,35.82,17.1,35.82,38.03,0,3.54-.44,7.08-.44,7.08h-53.51c2.36,10.17,10.76,15.03,20.49,15.03,7.08,0,14.45-2.06,19.9-5.75l7.37,14.15c-8.26,5.45-17.84,8.11-27.42,8.11-21.52,0-40.39-14-40.39-38.32Zm55.43-6.34c-1.47-9.29-8.85-15.48-17.84-15.48s-15.92,6.19-17.83,15.48h35.67Z"/></g><g><g><path class="cls-2" d="M105.5,61.54l-48.15,48.15c-2.13,2.13-.46,5.76,2.54,5.53,12.76-1,25.25-6.37,35.01-16.13,9.76-9.76,15.13-22.25,16.13-35.01,.23-3-3.4-4.67-5.53-2.54Z"/><path class="cls-2" d="M105.9,35.96c-.03-.06-.06-.12-.09-.18-2.85-6-10.71-7.46-15.4-2.76L28.83,94.61c-4.69,4.69-3.23,12.55,2.76,15.4,.06,.03,.12,.06,.18,.09,3.6,1.69,7.89,.88,10.71-1.93l61.49-61.49c2.81-2.81,3.63-7.1,1.93-10.71Z"/><path class="cls-2" d="M53.69,9.73c2.13-2.13,.46-5.76-2.54-5.53-12.76,1-25.25,6.37-35.01,16.13C6.38,30.09,1.01,42.58,.01,55.34c-.23,3,3.4,4.67,5.53,2.54L53.69,9.73Z"/></g><g><path class="cls-2" d="M14.14,65.69l-7.07,7.07c-2.85,2.85-3.6,7.18-1.88,10.82l.08,.16c2.82,5.96,10.69,7.33,15.36,2.67l7.12-7.12c3.76-3.76,3.76-9.84,0-13.6h0c-3.76-3.76-9.84-3.76-13.6,0Z"/><path class="cls-1" d="M50.04,56.99L82.21,24.82c4.66-4.66,3.29-12.54-2.67-15.36l-.16-.08c-3.64-1.72-7.97-.97-10.82,1.88L36.44,43.39c-3.76,3.76-3.76,9.84,0,13.6h0c3.76,3.76,9.84,3.76,13.6,0Z"/></g></g><g><path class="cls-1" d="M572.7,132.17h-7.07c-.27-1.51-.78-2.84-1.52-3.99-.74-1.15-1.65-2.12-2.72-2.92-1.07-.8-2.27-1.4-3.59-1.81-1.32-.41-2.72-.61-4.2-.61-2.67,0-5.06,.67-7.17,2.02-2.11,1.34-3.77,3.32-4.98,5.91-1.22,2.6-1.82,5.77-1.82,9.52s.61,6.96,1.82,9.56c1.21,2.6,2.88,4.56,5,5.89,2.12,1.33,4.49,1.99,7.14,1.99,1.46,0,2.86-.2,4.18-.6,1.32-.4,2.52-.99,3.59-1.78s1.98-1.75,2.73-2.89c.75-1.14,1.26-2.45,1.55-3.93l7.07,.02c-.38,2.28-1.11,4.38-2.19,6.29s-2.46,3.56-4.15,4.94c-1.68,1.38-3.61,2.45-5.77,3.21-2.16,.75-4.52,1.13-7.07,1.13-4.02,0-7.6-.96-10.74-2.87s-5.62-4.65-7.42-8.21c-1.81-3.56-2.71-7.82-2.71-12.76s.91-9.21,2.72-12.77c1.81-3.56,4.29-6.29,7.43-8.2s6.71-2.87,10.72-2.87c2.46,0,4.76,.35,6.9,1.05s4.06,1.73,5.77,3.08c1.71,1.35,3.12,3,4.24,4.94,1.12,1.94,1.87,4.16,2.27,6.65Z"/><path class="cls-1" d="M595.2,164.19c-3.26,0-6.11-.75-8.54-2.24-2.43-1.5-4.32-3.59-5.66-6.28-1.34-2.69-2.02-5.83-2.02-9.43s.67-6.77,2.02-9.47c1.34-2.7,3.23-4.8,5.66-6.3,2.43-1.5,5.28-2.24,8.54-2.24s6.11,.75,8.54,2.24c2.43,1.5,4.32,3.59,5.66,6.3,1.34,2.7,2.02,5.86,2.02,9.47s-.67,6.74-2.02,9.43-3.23,4.78-5.66,6.28c-2.43,1.5-5.28,2.24-8.54,2.24Zm.02-5.69c2.11,0,3.87-.56,5.26-1.68,1.39-1.12,2.42-2.61,3.09-4.46,.67-1.86,1.01-3.9,1.01-6.14s-.34-4.26-1.01-6.13c-.67-1.87-1.7-3.37-3.09-4.5-1.39-1.13-3.14-1.7-5.26-1.7s-3.89,.57-5.29,1.7c-1.4,1.13-2.43,2.63-3.1,4.5-.67,1.87-1.01,3.91-1.01,6.13s.34,4.28,1.01,6.14c.67,1.86,1.71,3.35,3.1,4.46,1.4,1.12,3.16,1.68,5.29,1.68Z"/><path class="cls-1" d="M625.75,117.08v46.4h-6.78v-46.4h6.78Z"/><path class="cls-1" d="M641.63,117.08v46.4h-6.78v-46.4h6.78Z"/><path class="cls-1" d="M665.74,164.19c-3.43,0-6.38-.74-8.85-2.21s-4.37-3.55-5.71-6.23c-1.34-2.68-2-5.83-2-9.44s.67-6.71,2-9.42c1.34-2.72,3.21-4.84,5.62-6.37s5.23-2.29,8.46-2.29c1.96,0,3.87,.32,5.71,.97,1.84,.65,3.5,1.67,4.96,3.06,1.47,1.39,2.62,3.19,3.47,5.4s1.27,4.9,1.27,8.05v2.4h-27.67v-5.08h21.03c0-1.78-.36-3.36-1.09-4.75-.73-1.38-1.74-2.47-3.05-3.27s-2.84-1.2-4.59-1.2c-1.9,0-3.56,.46-4.97,1.39-1.41,.93-2.5,2.14-3.26,3.62-.76,1.49-1.14,3.1-1.14,4.84v3.96c0,2.33,.41,4.3,1.23,5.94,.82,1.63,1.97,2.87,3.46,3.73s3.21,1.28,5.19,1.28c1.28,0,2.46-.18,3.51-.55,1.06-.37,1.97-.92,2.74-1.67s1.36-1.65,1.77-2.74l6.41,1.16c-.51,1.89-1.43,3.54-2.75,4.95-1.32,1.41-2.98,2.51-4.96,3.29-1.99,.78-4.25,1.17-6.79,1.17Z"/><path class="cls-1" d="M702.87,164.19c-3.37,0-6.26-.77-8.69-2.3-2.42-1.53-4.29-3.65-5.58-6.36-1.3-2.7-1.95-5.8-1.95-9.29s.66-6.66,1.99-9.37c1.33-2.71,3.2-4.83,5.62-6.36s5.26-2.29,8.54-2.29c2.64,0,5,.49,7.07,1.46s3.74,2.34,5.02,4.09,2.04,3.8,2.28,6.14h-6.59c-.36-1.63-1.19-3.04-2.48-4.21-1.29-1.18-3.02-1.77-5.18-1.77-1.89,0-3.54,.5-4.95,1.48-1.41,.99-2.51,2.39-3.3,4.21-.79,1.82-1.18,3.97-1.18,6.45s.39,4.73,1.16,6.57,1.86,3.27,3.27,4.28,3.08,1.52,5,1.52c1.28,0,2.45-.24,3.5-.71,1.05-.48,1.93-1.16,2.65-2.05,.72-.89,1.22-1.96,1.51-3.22h6.59c-.24,2.25-.97,4.26-2.2,6.03-1.22,1.77-2.86,3.16-4.91,4.17s-4.44,1.52-7.19,1.52Z"/><path class="cls-1" d="M740.69,128.68v5.44h-19.01v-5.44h19.01Zm-13.91-8.34h6.77v32.92c0,1.31,.2,2.3,.59,2.96,.39,.66,.9,1.1,1.53,1.34,.63,.23,1.31,.35,2.05,.35,.54,0,1.02-.04,1.43-.11,.41-.08,.73-.14,.95-.18l1.22,5.6c-.39,.15-.95,.31-1.68,.46-.73,.16-1.63,.25-2.72,.26-1.78,.03-3.44-.29-4.98-.95-1.54-.67-2.79-1.69-3.74-3.08-.95-1.39-1.43-3.13-1.43-5.23v-34.33Z"/><path class="cls-1" d="M762.46,164.19c-3.26,0-6.11-.75-8.54-2.24-2.43-1.5-4.32-3.59-5.66-6.28-1.34-2.69-2.02-5.83-2.02-9.43s.67-6.77,2.02-9.47c1.34-2.7,3.23-4.8,5.66-6.3,2.43-1.5,5.28-2.24,8.54-2.24s6.11,.75,8.54,2.24c2.43,1.5,4.32,3.59,5.66,6.3,1.34,2.7,2.02,5.86,2.02,9.47s-.67,6.74-2.02,9.43-3.23,4.78-5.66,6.28c-2.43,1.5-5.28,2.24-8.54,2.24Zm.02-5.69c2.11,0,3.87-.56,5.26-1.68,1.39-1.12,2.42-2.61,3.09-4.46,.67-1.86,1.01-3.9,1.01-6.14s-.34-4.26-1.01-6.13c-.67-1.87-1.7-3.37-3.09-4.5-1.39-1.13-3.14-1.7-5.26-1.7s-3.89,.57-5.29,1.7c-1.4,1.13-2.43,2.63-3.1,4.5-.67,1.87-1.01,3.91-1.01,6.13s.34,4.28,1.01,6.14c.67,1.86,1.71,3.35,3.1,4.46,1.4,1.12,3.16,1.68,5.29,1.68Z"/><path class="cls-1" d="M786.23,163.49v-34.8h6.55v5.53h.36c.63-1.87,1.76-3.35,3.36-4.43,1.61-1.08,3.43-1.62,5.47-1.62,.42,0,.93,.02,1.51,.04,.58,.03,1.04,.07,1.37,.11v6.48c-.27-.08-.76-.16-1.45-.26-.69-.1-1.39-.15-2.08-.15-1.6,0-3.03,.34-4.27,1.01s-2.23,1.6-2.96,2.79c-.72,1.19-1.09,2.53-1.09,4.04v21.25h-6.78Z"/></g></svg>