<svg width="643" height="99" viewBox="0 0 643 99" fill="none" xmlns="http://www.w3.org/2000/svg">
<path d="M115.396 18.9197H130.608V26.1115C135.525 20.2405 142.591 17.7244 149.773 17.7244C166.306 17.7244 176.853 31.6256 176.853 48.7564C176.853 65.8872 166.065 80.0296 149.532 80.0296C142.582 80.0296 135.756 77.2725 131.438 71.9992V96.0807H115.386V18.9197H115.396ZM160.445 48.8722C160.445 39.4055 154.333 32.5801 145.589 32.5801C137.443 32.5801 131.331 39.2897 131.331 48.8722C131.331 58.4547 137.318 65.1643 145.589 65.1643C154.333 65.1643 160.445 58.3389 160.445 48.8722Z" fill="#17181C"/>
<path d="M182.872 48.8804C182.872 31.6244 193.419 17.7327 209.952 17.7327C216.903 17.7327 224.326 20.4898 228.644 26.2355V18.9281H244.339V78.8329H228.644V71.6411C224.451 77.3966 216.903 80.0284 209.952 80.0284C193.419 80.0284 182.872 66.127 182.872 48.8804ZM228.278 48.8804C228.278 39.5293 222.291 32.5883 214.02 32.5883C205.749 32.5883 199.164 39.539 199.164 48.8804C199.164 58.2219 205.392 65.1725 214.02 65.1725C222.648 65.1725 228.278 58.4629 228.278 48.8804Z" fill="#17181C"/>
<path d="M256.56 18.9281H272.369V30.4289C274.046 25.522 280.159 17.7327 293.338 17.7327V35.2299C279.436 35.2299 272.611 41.5827 272.611 55.8409V78.8426H256.56V18.9281Z" fill="#17181C"/>
<path d="M297.392 71.8739L303.148 59.5344C307.225 62.648 312.856 65.8872 321.84 65.8872C325.552 65.8872 331.665 64.4509 331.665 60.8551C331.665 57.2591 326.517 56.4205 321.358 54.9842C309.499 51.8703 299.792 47.9177 299.792 36.4168C299.792 24.193 311.776 17.7244 323.035 17.7244C332.86 17.7244 339.087 20.1248 345.323 23.711L339.934 35.6939C334.065 32.8211 328.55 31.5003 323.286 31.5003C319.576 31.5003 316.094 33.1777 316.094 35.6939C316.094 39.0486 321.127 40.1283 326.642 41.3238C336.821 43.7243 347.967 48.149 347.967 60.373C347.967 75.1131 332.985 80.0199 321.85 80.0199C309.028 80.0199 300.767 74.9878 297.411 71.8739H297.392Z" fill="#17181C"/>
<path d="M353.921 48.8721C353.921 31.6161 367.341 17.7244 384.953 17.7244C401.247 17.7244 414.067 31.6258 414.067 48.6311C414.067 51.5039 413.71 54.3865 413.71 54.3865H370.223C372.141 62.6482 378.969 66.6102 386.881 66.6102C392.627 66.6102 398.624 64.9329 403.057 61.9348L409.044 73.4357C402.337 77.8701 394.547 80.0201 386.766 80.0201C369.269 80.0201 353.942 68.6347 353.942 48.8721H353.921ZM398.97 43.7243C397.775 36.176 391.781 31.1437 384.471 31.1437C377.164 31.1437 371.536 36.176 369.974 43.7243H398.97Z" fill="#17181C"/>
<path d="M419.9 48.8722C419.9 31.6161 430.446 17.7244 446.978 17.7244C453.929 17.7244 461.354 20.4815 465.672 26.227V18.9197H481.366V78.8246H465.672V71.6329C461.478 77.3881 453.929 80.0199 446.978 80.0199C430.446 80.0199 419.9 66.1185 419.9 48.8722ZM465.305 48.8722C465.305 39.521 459.319 32.5801 451.047 32.5801C442.776 32.5801 436.192 39.5307 436.192 48.8722C436.192 58.2136 442.419 65.1643 451.047 65.1643C459.675 65.1643 465.305 58.4547 465.305 48.8722Z" fill="#17181C"/>
<path d="M507.795 71.637V78.8287H492.583V0H508.634V25.6432C512.954 20.4953 519.779 17.7381 526.73 17.7381C543.263 17.7381 554.041 31.6394 554.041 48.886C554.041 66.1323 543.493 80.0337 526.961 80.0337C519.769 80.0337 512.221 77.4019 507.795 71.6467V71.637ZM537.748 48.8763C537.748 39.5252 531.52 32.5842 522.892 32.5842C514.264 32.5842 508.634 39.5349 508.634 48.8763C508.634 58.2178 514.746 65.1684 522.892 65.1684C531.52 65.1684 537.748 58.343 537.748 48.8763Z" fill="#17181C"/>
<path d="M560.286 0H576.336V78.8288H560.286V0Z" fill="#17181C"/>
<path d="M582.449 48.2758C582.449 31.0195 595.868 17.128 613.48 17.128C629.774 17.128 642.594 31.0292 642.594 48.0348C642.594 50.9076 642.238 53.7899 642.238 53.7899H598.751C600.668 62.0517 607.494 66.0139 615.398 66.0139C621.154 66.0139 627.141 64.3366 631.577 61.3385L637.564 72.8394C630.854 77.2738 623.064 79.4235 615.275 79.4235C597.776 79.4235 582.449 68.0384 582.449 48.2758ZM627.497 43.1277C626.303 35.5794 620.305 30.5474 612.998 30.5474C605.691 30.5474 600.06 35.5794 598.499 43.1277H627.497Z" fill="#17181C"/>
<path d="M71.6663 33.2717C74.7881 30.1451 79.8534 30.1412 82.98 33.263C86.1066 36.3848 86.1105 41.4501 82.9887 44.5767L34.9421 92.6967C31.8203 95.8233 26.755 95.8271 23.6284 92.7053C20.5019 89.5835 20.498 84.5182 23.6198 81.3916L71.6663 33.2717Z" fill="#17181C"/>
<path d="M43.8208 14.0576C45.5541 12.3186 44.2083 9.31676 41.7779 9.50106C31.4013 10.2744 21.2305 14.6494 13.2607 22.645C5.29094 30.6405 0.877988 40.8965 0.0212538 51.3928C-0.182591 53.8607 2.77077 55.2499 4.50423 53.5011L43.8208 14.0576Z" fill="#17181C"/>
<path d="M84.4706 55.0137C86.207 53.2777 89.2109 54.6189 89.0303 57.0496C88.2729 67.4273 83.9133 77.6048 75.9299 85.5868C67.9466 93.5688 57.6974 97.9974 47.2024 98.8702C44.7348 99.0778 43.3412 96.1266 45.0873 94.3904L84.4706 55.0137Z" fill="#17181C"/>
<path d="M31.4728 60.9306L65.5394 26.7389C69.3597 22.8458 68.134 16.3772 63.1415 14.1232L63.0027 14.0666C59.9557 12.6934 56.3657 13.3597 54.0327 15.7469L20.0052 49.8993C16.9236 53.0395 16.9947 58.0493 20.1641 61.1009C23.3336 64.1524 28.3914 64.0806 31.473 60.9404L31.4728 60.9306Z" fill="#17181C"/>
<path d="M19.2739 69.9025C19.2739 74.1201 15.7737 77.5392 11.456 77.5392C7.13828 77.5392 3.63808 74.1201 3.63808 69.9025C3.63808 65.6848 7.13828 62.2657 11.456 62.2657C15.7737 62.2657 19.2739 65.6848 19.2739 69.9025Z" fill="#17181C"/>
</svg>
