<svg width="699" height="104" viewBox="0 0 699 104" fill="none" xmlns="http://www.w3.org/2000/svg">
<mask id="mask0_290_3092" style="mask-type:luminance" maskUnits="userSpaceOnUse" x="124" y="18" width="65" height="82">
<path d="M124.329 19.6301H140.109V27.0901C145.209 21.0001 152.539 18.3901 159.989 18.3901C177.139 18.3901 188.079 32.8101 188.079 50.5801C188.079 68.3501 176.889 83.0201 159.739 83.0201C152.529 83.0201 145.449 80.1601 140.969 74.6901V99.6701H124.319V19.6301H124.329ZM171.059 50.7001C171.059 40.8801 164.719 33.8001 155.649 33.8001C147.199 33.8001 140.859 40.7601 140.859 50.7001C140.859 60.6401 147.069 67.6001 155.649 67.6001C164.719 67.6001 171.059 60.5201 171.059 50.7001Z" fill="white"/>
</mask>
<g mask="url(#mask0_290_3092)">
<path d="M711.819 -9.10986H108.229V135.53H711.819V-9.10986Z" fill="#545BEB"/>
</g>
<path d="M197.029 50.7001C197.029 32.8001 207.969 18.3901 225.119 18.3901C232.329 18.3901 240.029 21.2501 244.509 27.2101V19.6301H260.789V81.7701H244.509V74.3101C240.159 80.2801 232.329 83.0101 225.119 83.0101C207.969 83.0101 197.029 68.5901 197.029 50.7001ZM244.129 50.7001C244.129 41.0001 237.919 33.8001 229.339 33.8001C220.759 33.8001 213.929 41.0101 213.929 50.7001C213.929 60.3901 220.389 67.6001 229.339 67.6001C238.289 67.6001 244.129 60.6401 244.129 50.7001Z" fill="#545BEB"/>
<mask id="mask1_290_3092" style="mask-type:luminance" maskUnits="userSpaceOnUse" x="197" y="18" width="64" height="66">
<path d="M197.029 50.7001C197.029 32.8001 207.969 18.3901 225.119 18.3901C232.329 18.3901 240.029 21.2501 244.509 27.2101V19.6301H260.789V81.7701H244.509V74.3101C240.159 80.2801 232.329 83.0101 225.119 83.0101C207.969 83.0101 197.029 68.5901 197.029 50.7001ZM244.129 50.7001C244.129 41.0001 237.919 33.8001 229.339 33.8001C220.759 33.8001 213.929 41.0101 213.929 50.7001C213.929 60.3901 220.389 67.6001 229.339 67.6001C238.289 67.6001 244.129 60.6401 244.129 50.7001Z" fill="white"/>
</mask>
<g mask="url(#mask1_290_3092)">
<path d="M712.279 -9.20984H108.689V135.43H712.279V-9.20984Z" fill="#545BEB"/>
</g>
<path d="M273.459 19.6301H289.859V31.5601C291.599 26.4701 297.939 18.3901 311.609 18.3901V36.5401C297.189 36.5401 290.109 43.1301 290.109 57.9201V81.7801H273.459V19.6301Z" fill="#545BEB"/>
<mask id="mask2_290_3092" style="mask-type:luminance" maskUnits="userSpaceOnUse" x="273" y="18" width="39" height="64">
<path d="M273.459 19.6301H289.859V31.5601C291.599 26.4701 297.939 18.3901 311.609 18.3901V36.5401C297.189 36.5401 290.109 43.1301 290.109 57.9201V81.7801H273.459V19.6301Z" fill="white"/>
</mask>
<g mask="url(#mask2_290_3092)">
<path d="M712.279 -9.20984H108.689V135.43H712.279V-9.20984Z" fill="#545BEB"/>
</g>
<path d="M317.449 74.5601L323.419 61.7601C327.649 64.9901 333.489 68.3501 342.809 68.3501C346.659 68.3501 352.999 66.8601 352.999 63.1301C352.999 59.4001 347.659 58.5301 342.309 57.0401C330.009 53.8101 319.939 49.7101 319.939 37.7801C319.939 25.1001 332.369 18.3901 344.049 18.3901C354.239 18.3901 360.699 20.8801 367.169 24.6001L361.579 37.0301C355.489 34.0501 349.769 32.6801 344.309 32.6801C340.459 32.6801 336.849 34.4201 336.849 37.0301C336.849 40.5101 342.069 41.6301 347.789 42.8701C358.349 45.3601 369.909 49.9501 369.909 62.6301C369.909 77.9201 354.369 83.0101 342.819 83.0101C329.519 83.0101 320.949 77.7901 317.469 74.5601H317.449Z" fill="#545BEB"/>
<mask id="mask3_290_3092" style="mask-type:luminance" maskUnits="userSpaceOnUse" x="317" y="18" width="53" height="66">
<path d="M317.449 74.5601L323.419 61.7601C327.649 64.9901 333.489 68.3501 342.809 68.3501C346.659 68.3501 352.999 66.8601 352.999 63.1301C352.999 59.4001 347.659 58.5301 342.309 57.0401C330.009 53.8101 319.939 49.7101 319.939 37.7801C319.939 25.1001 332.369 18.3901 344.049 18.3901C354.239 18.3901 360.699 20.8801 367.169 24.6001L361.579 37.0301C355.489 34.0501 349.769 32.6801 344.309 32.6801C340.459 32.6801 336.849 34.4201 336.849 37.0301C336.849 40.5101 342.069 41.6301 347.789 42.8701C358.349 45.3601 369.909 49.9501 369.909 62.6301C369.909 77.9201 354.369 83.0101 342.819 83.0101C329.519 83.0101 320.949 77.7901 317.469 74.5601H317.449Z" fill="white"/>
</mask>
<g mask="url(#mask3_290_3092)">
<path d="M712.279 -9.20984H108.689V135.43H712.279V-9.20984Z" fill="#545BEB"/>
</g>
<path d="M377.979 50.7001C377.979 32.8001 391.899 18.3901 410.169 18.3901C427.069 18.3901 440.369 32.8101 440.369 50.4501C440.369 53.4301 439.999 56.4201 439.999 56.4201H394.889C396.879 64.9901 403.959 69.1001 412.169 69.1001C418.129 69.1001 424.349 67.3601 428.949 64.2501L435.159 76.1801C428.199 80.7801 420.119 83.0101 412.049 83.0101C393.899 83.0101 377.999 71.2001 377.999 50.7001H377.979ZM424.709 45.3601C423.469 37.5301 417.249 32.3101 409.669 32.3101C402.089 32.3101 396.249 37.5301 394.629 45.3601H424.709Z" fill="#545BEB"/>
<mask id="mask4_290_3092" style="mask-type:luminance" maskUnits="userSpaceOnUse" x="377" y="18" width="64" height="66">
<path d="M377.979 50.7001C377.979 32.8001 391.899 18.3901 410.169 18.3901C427.069 18.3901 440.369 32.8101 440.369 50.4501C440.369 53.4301 439.999 56.4201 439.999 56.4201H394.889C396.879 64.9901 403.959 69.1001 412.169 69.1001C418.129 69.1001 424.349 67.3601 428.949 64.2501L435.159 76.1801C428.199 80.7801 420.119 83.0101 412.049 83.0101C393.899 83.0101 377.999 71.2001 377.999 50.7001H377.979ZM424.709 45.3601C423.469 37.5301 417.249 32.3101 409.669 32.3101C402.089 32.3101 396.249 37.5301 394.629 45.3601H424.709Z" fill="white"/>
</mask>
<g mask="url(#mask4_290_3092)">
<path d="M712.279 -9.20984H108.689V135.43H712.279V-9.20984Z" fill="#545BEB"/>
</g>
<path d="M449.429 50.7001C449.429 32.8001 460.369 18.3901 477.519 18.3901C484.729 18.3901 492.429 21.2501 496.909 27.2101V19.6301H513.189V81.7701H496.909V74.3101C492.559 80.2801 484.729 83.0101 477.519 83.0101C460.369 83.0101 449.429 68.5901 449.429 50.7001ZM496.529 50.7001C496.529 41.0001 490.319 33.8001 481.739 33.8001C473.159 33.8001 466.329 41.0101 466.329 50.7001C466.329 60.3901 472.789 67.6001 481.739 67.6001C490.689 67.6001 496.529 60.6401 496.529 50.7001Z" fill="#545BEB"/>
<mask id="mask5_290_3092" style="mask-type:luminance" maskUnits="userSpaceOnUse" x="449" y="18" width="65" height="66">
<path d="M449.429 50.7001C449.429 32.8001 460.369 18.3901 477.519 18.3901C484.729 18.3901 492.429 21.2501 496.909 27.2101V19.6301H513.189V81.7701H496.909V74.3101C492.559 80.2801 484.729 83.0101 477.519 83.0101C460.369 83.0101 449.429 68.5901 449.429 50.7001ZM496.529 50.7001C496.529 41.0001 490.319 33.8001 481.739 33.8001C473.159 33.8001 466.329 41.0101 466.329 50.7001C466.329 60.3901 472.789 67.6001 481.739 67.6001C490.689 67.6001 496.529 60.6401 496.529 50.7001Z" fill="white"/>
</mask>
<g mask="url(#mask5_290_3092)">
<path d="M712.279 -9.20984H108.689V135.43H712.279V-9.20984Z" fill="#545BEB"/>
</g>
<path d="M541.649 74.31V81.77H525.869V0H542.519V26.6C546.999 21.26 554.079 18.4 561.289 18.4C578.439 18.4 589.619 32.82 589.619 50.71C589.619 68.6 578.679 83.02 561.529 83.02C554.069 83.02 546.239 80.29 541.649 74.32V74.31ZM572.719 50.7C572.719 41 566.259 33.8 557.309 33.8C548.359 33.8 542.519 41.01 542.519 50.7C542.519 60.39 548.859 67.6 557.309 67.6C566.259 67.6 572.719 60.52 572.719 50.7Z" fill="#545BEB"/>
<mask id="mask6_290_3092" style="mask-type:luminance" maskUnits="userSpaceOnUse" x="525" y="0" width="65" height="84">
<path d="M541.649 74.31V81.77H525.869V0H542.519V26.6C546.999 21.26 554.079 18.4 561.289 18.4C578.439 18.4 589.619 32.82 589.619 50.71C589.619 68.6 578.679 83.02 561.529 83.02C554.069 83.02 546.239 80.29 541.649 74.32V74.31ZM572.719 50.7C572.719 41 566.259 33.8 557.309 33.8C548.359 33.8 542.519 41.01 542.519 50.7C542.519 60.39 548.859 67.6 557.309 67.6C566.259 67.6 572.719 60.52 572.719 50.7Z" fill="white"/>
</mask>
<g mask="url(#mask6_290_3092)">
<path d="M712.279 -9.20996H108.689V135.43H712.279V-9.20996Z" fill="#545BEB"/>
</g>
<path d="M600.429 0H617.079V81.77H600.429V0Z" fill="#545BEB"/>
<mask id="mask7_290_3092" style="mask-type:luminance" maskUnits="userSpaceOnUse" x="600" y="0" width="18" height="82">
<path d="M600.429 0H617.079V81.77H600.429V0Z" fill="white"/>
</mask>
<g mask="url(#mask7_290_3092)">
<path d="M712.279 -9.20996H108.689V135.43H712.279V-9.20996Z" fill="#545BEB"/>
</g>
<path d="M88.9593 58.7399L48.3593 99.3399C46.5693 101.13 47.9794 104.2 50.4994 104C61.2594 103.16 71.7894 98.6299 80.0194 90.3999C88.2494 82.1699 92.7794 71.6399 93.6194 60.8799C93.8194 58.3499 90.7493 56.9399 88.9593 58.7399Z" fill="#545BEB"/>
<path d="M89.2993 37.17L89.2293 37.02C86.8293 31.96 80.1993 30.73 76.2493 34.69L24.3193 86.62C20.3593 90.58 21.5893 97.2 26.6493 99.6L26.7993 99.67C29.8393 101.1 33.4493 100.41 35.8293 98.04L87.6693 46.2C90.0393 43.83 90.7293 40.21 89.2993 37.17Z" fill="#545BEB"/>
<path d="M45.2793 15.0599C47.0693 13.2699 45.6593 10.1999 43.1393 10.3999C32.3793 11.2399 21.8493 15.7699 13.6193 23.9999C5.38931 32.2199 0.859309 42.7499 0.00930878 53.5099C-0.190691 56.0399 2.87931 57.4499 4.66931 55.6499L45.2793 15.0599Z" fill="#545BEB"/>
<path d="M11.9293 62.2299L5.96933 68.1899C3.56933 70.5899 2.92933 74.2399 4.37933 77.3099L4.43933 77.4499C6.80933 82.4799 13.4593 83.6299 17.3893 79.6999L23.3893 73.6999C26.5593 70.5299 26.5593 65.3999 23.3893 62.2299C20.2193 59.0599 15.0893 59.0599 11.9193 62.2299H11.9293Z" fill="#545BEB"/>
<path d="M42.1993 54.9L69.3293 27.77C73.2593 23.84 72.1093 17.2 67.0793 14.82L66.9393 14.76C63.8693 13.31 60.2193 13.94 57.8193 16.35L30.7293 43.44C27.5593 46.61 27.5593 51.74 30.7293 54.91C33.8993 58.08 39.0293 58.08 42.1993 54.91V54.9Z" fill="#FC466B"/>
<path d="M635.719 52.61C635.719 34.71 649.639 20.3 667.909 20.3C684.809 20.3 698.109 34.72 698.109 52.36C698.109 55.34 697.739 58.33 697.739 58.33H652.629C654.619 66.9 661.699 71.01 669.899 71.01C675.869 71.01 682.079 69.2701 686.679 66.16L692.889 78.09C685.929 82.69 677.849 84.92 669.769 84.92C651.619 84.92 635.719 73.11 635.719 52.61ZM682.449 47.27C681.209 39.44 674.989 34.22 667.409 34.22C659.829 34.22 653.989 39.44 652.369 47.27H682.449Z" fill="#545BEB"/>
<mask id="mask8_290_3092" style="mask-type:luminance" maskUnits="userSpaceOnUse" x="635" y="20" width="64" height="65">
<path d="M635.719 52.61C635.719 34.71 649.639 20.3 667.909 20.3C684.809 20.3 698.109 34.72 698.109 52.36C698.109 55.34 697.739 58.33 697.739 58.33H652.629C654.619 66.9 661.699 71.01 669.899 71.01C675.869 71.01 682.079 69.2701 686.679 66.16L692.889 78.09C685.929 82.69 677.849 84.92 669.769 84.92C651.619 84.92 635.719 73.11 635.719 52.61ZM682.449 47.27C681.209 39.44 674.989 34.22 667.409 34.22C659.829 34.22 653.989 39.44 652.369 47.27H682.449Z" fill="white"/>
</mask>
<g mask="url(#mask8_290_3092)">
<path d="M721.959 -9.15991H118.369V135.48H721.959V-9.15991Z" fill="#545BEB"/>
</g>
</svg>
