<svg width="2835" height="939" viewBox="0 0 2835 939" fill="none" xmlns="http://www.w3.org/2000/svg">
<path d="M485.295 494.976L335.909 644.363C329.323 650.949 334.511 662.245 343.783 661.509C383.374 658.418 422.119 641.75 452.401 611.468C482.683 581.186 499.351 542.441 502.441 502.85C503.177 493.541 491.882 488.353 485.295 494.976Z" fill="#3A3A8C"/>
<path d="M486.551 415.615L486.293 415.063C477.463 396.445 453.068 391.92 438.534 406.49L247.459 597.565C232.889 612.135 237.415 636.493 256.033 645.324L256.584 645.582C267.77 650.843 281.053 648.304 289.81 639.584L480.553 448.841C489.274 440.121 491.812 426.801 486.551 415.615Z" fill="#3A3A8C"/>
<path d="M324.575 334.251C331.161 327.664 325.973 316.368 316.7 317.104C277.109 320.195 238.365 336.863 208.083 367.145C177.801 397.427 161.133 436.172 158.042 475.763C157.306 485.072 168.602 490.26 175.188 483.637L324.575 334.251Z" fill="#3A3A8C"/>
<path d="M201.871 507.826L179.941 529.755C171.11 538.586 168.755 552.016 174.091 563.312L174.311 563.827C183.032 582.335 207.5 586.566 221.961 572.106L244.037 550.029C255.701 538.365 255.701 519.49 244.037 507.826C232.373 496.162 213.498 496.162 201.834 507.826H201.871Z" fill="#3A3A8C"/>
<path d="M313.25 480.854L413.074 381.031C427.534 366.57 423.303 342.139 404.795 333.382L404.28 333.161C392.984 327.826 379.554 330.144 370.723 339.011L271.047 438.688C259.383 450.352 259.383 469.227 271.047 480.891C282.711 492.555 301.586 492.555 313.25 480.891V480.854Z" fill="#00A896"/>
<path d="M615.418 351.075H673.48V378.524C692.245 356.116 719.215 346.512 746.627 346.512C809.73 346.512 849.984 399.57 849.984 464.954C849.984 530.338 808.81 584.316 745.708 584.316C719.179 584.316 693.128 573.793 676.644 553.666V645.579H615.381V351.075H615.418ZM787.359 465.396C787.359 429.264 764.031 403.213 730.659 403.213C699.567 403.213 676.239 428.822 676.239 465.396C676.239 501.97 699.089 527.579 730.659 527.579C764.031 527.579 787.359 501.528 787.359 465.396Z" fill="#3A3A8C"/>
<mask id="mask0_30_230" style="mask-type:luminance" maskUnits="userSpaceOnUse" x="615" y="346" width="235" height="300">
<path d="M615.417 351.075H673.479V378.524C692.244 356.116 719.215 346.512 746.627 346.512C809.729 346.512 849.983 399.57 849.983 464.954C849.983 530.338 808.81 584.316 745.707 584.316C719.178 584.316 693.127 573.793 676.644 553.666V645.579H615.38V351.075H615.417ZM787.358 465.396C787.358 429.264 764.031 403.213 730.658 403.213C699.567 403.213 676.239 428.822 676.239 465.396C676.239 501.97 699.088 527.579 730.658 527.579C764.031 527.579 787.358 501.528 787.358 465.396Z" fill="white"/>
</mask>
<g mask="url(#mask0_30_230)">
<path d="M2777.06 245.327H556.177V777.525H2777.06V245.327Z" fill="#3A3A8C"/>
</g>
<path d="M882.909 465.396C882.909 399.534 923.162 346.513 986.265 346.513C1012.79 346.513 1041.13 357.036 1057.61 378.966V351.075H1117.51V579.717H1057.61V552.268C1041.6 574.235 1012.79 584.28 986.265 584.28C923.162 584.28 882.909 531.222 882.909 465.396ZM1056.21 465.396C1056.21 429.705 1033.36 403.213 1001.79 403.213C970.223 403.213 945.092 429.742 945.092 465.396C945.092 501.05 968.861 527.579 1001.79 527.579C1034.72 527.579 1056.21 501.97 1056.21 465.396Z" fill="#3A3A8C"/>
<mask id="mask1_30_230" style="mask-type:luminance" maskUnits="userSpaceOnUse" x="882" y="346" width="236" height="239">
<path d="M882.908 465.396C882.908 399.534 923.161 346.513 986.264 346.513C1012.79 346.513 1041.12 357.036 1057.61 378.966V351.075H1117.51V579.717H1057.61V552.268C1041.6 574.235 1012.79 584.28 986.264 584.28C923.161 584.28 882.908 531.222 882.908 465.396ZM1056.21 465.396C1056.21 429.705 1033.36 403.213 1001.79 403.213C970.221 403.213 945.09 429.742 945.09 465.396C945.09 501.05 968.86 527.579 1001.79 527.579C1034.72 527.579 1056.21 501.97 1056.21 465.396Z" fill="white"/>
</mask>
<g mask="url(#mask1_30_230)">
<path d="M2778.75 244.967H557.868V777.164H2778.75V244.967Z" fill="#3A3A8C"/>
</g>
<path d="M1164.14 351.075H1224.48V394.971C1230.88 376.243 1254.21 346.512 1304.51 346.512V413.295C1251.45 413.295 1225.4 437.542 1225.4 491.962V579.754H1164.14V351.075Z" fill="#3A3A8C"/>
<mask id="mask2_30_230" style="mask-type:luminance" maskUnits="userSpaceOnUse" x="1164" y="346" width="141" height="234">
<path d="M1164.13 351.24H1224.48V395.136C1230.88 376.408 1254.21 346.677 1304.51 346.677V413.46C1251.45 413.46 1225.4 437.707 1225.4 492.127V579.919H1164.13V351.24Z" fill="white"/>
</mask>
<g mask="url(#mask2_30_230)">
<path d="M2778.76 245.135H557.869V777.332H2778.76V245.135Z" fill="#3A3A8C"/>
</g>
<path d="M1326 553.188L1347.96 506.091C1363.53 517.975 1385.02 530.338 1419.31 530.338C1433.48 530.338 1456.8 524.856 1456.8 511.132C1456.8 497.407 1437.15 494.206 1417.47 488.724C1372.21 476.839 1335.16 461.753 1335.16 417.857C1335.16 371.202 1380.9 346.512 1423.87 346.512C1461.37 346.512 1485.14 355.674 1508.94 369.362L1488.37 415.098C1465.96 404.133 1444.92 399.092 1424.83 399.092C1410.66 399.092 1397.38 405.494 1397.38 415.098C1397.38 427.902 1416.59 432.023 1437.63 436.586C1476.49 445.748 1519.02 462.636 1519.02 509.292C1519.02 565.551 1461.84 584.279 1419.35 584.279C1370.41 584.279 1338.88 565.072 1326.07 553.188H1326Z" fill="#3A3A8C"/>
<mask id="mask3_30_230" style="mask-type:luminance" maskUnits="userSpaceOnUse" x="1325" y="346" width="195" height="239">
<path d="M1325.99 553.188L1347.96 506.091C1363.52 517.975 1385.01 530.338 1419.3 530.338C1433.47 530.338 1456.79 524.856 1456.79 511.132C1456.79 497.407 1437.15 494.206 1417.46 488.724C1372.2 476.839 1335.15 461.753 1335.15 417.857C1335.15 371.202 1380.89 346.512 1423.86 346.512C1461.36 346.512 1485.13 355.674 1508.93 369.362L1488.36 415.098C1465.96 404.133 1444.91 399.092 1424.82 399.092C1410.65 399.092 1397.37 405.494 1397.37 415.098C1397.37 427.902 1416.58 432.023 1437.62 436.586C1476.48 445.748 1519.01 462.636 1519.01 509.292C1519.01 565.551 1461.84 584.279 1419.34 584.279C1370.4 584.279 1338.87 565.072 1326.06 553.188H1325.99Z" fill="white"/>
</mask>
<g mask="url(#mask3_30_230)">
<path d="M2778.76 244.969H557.871V777.166H2778.76V244.969Z" fill="#3A3A8C"/>
</g>
<path d="M1548.72 465.396C1548.72 399.533 1599.94 346.512 1667.17 346.512C1729.35 346.512 1778.29 399.57 1778.29 464.476C1778.29 475.441 1776.92 486.442 1776.92 486.442H1610.94C1618.27 517.975 1644.32 533.098 1674.53 533.098C1696.46 533.098 1719.34 526.696 1736.27 515.253L1759.12 559.149C1733.51 576.074 1703.78 584.279 1674.08 584.279C1607.3 584.279 1548.8 540.825 1548.8 465.396H1548.72ZM1720.67 445.748C1716.1 416.937 1693.22 397.731 1665.33 397.731C1637.44 397.731 1615.95 416.937 1609.99 445.748H1720.67Z" fill="#3A3A8C"/>
<mask id="mask4_30_230" style="mask-type:luminance" maskUnits="userSpaceOnUse" x="1548" y="346" width="231" height="239">
<path d="M1548.73 465.396C1548.73 399.534 1599.95 346.513 1667.17 346.513C1729.36 346.513 1778.29 399.571 1778.29 464.476C1778.29 475.441 1776.93 486.443 1776.93 486.443H1610.95C1618.27 517.976 1644.32 533.098 1674.53 533.098C1696.46 533.098 1719.35 526.696 1736.27 515.253L1759.12 559.149C1733.51 576.074 1703.78 584.28 1674.09 584.28C1607.31 584.28 1548.81 540.825 1548.81 465.396H1548.73ZM1720.67 445.748C1716.11 416.938 1693.22 397.731 1665.33 397.731C1637.44 397.731 1615.96 416.938 1610 445.748H1720.67Z" fill="white"/>
</mask>
<g mask="url(#mask4_30_230)">
<path d="M2778.77 244.967H557.882V777.164H2778.77V244.967Z" fill="#3A3A8C"/>
</g>
<path d="M1811.61 465.396C1811.61 399.534 1851.86 346.513 1914.97 346.513C1941.5 346.513 1969.83 357.036 1986.31 378.966V351.075H2046.21V579.717H1986.31V552.268C1970.31 574.235 1941.5 584.28 1914.97 584.28C1851.86 584.28 1811.61 531.222 1811.61 465.396ZM1984.91 465.396C1984.91 429.705 1962.06 403.213 1930.49 403.213C1898.92 403.213 1873.79 429.742 1873.79 465.396C1873.79 501.05 1897.56 527.579 1930.49 527.579C1963.43 527.579 1984.91 501.97 1984.91 465.396Z" fill="#3A3A8C"/>
<mask id="mask5_30_230" style="mask-type:luminance" maskUnits="userSpaceOnUse" x="1811" y="346" width="236" height="239">
<path d="M1811.61 465.396C1811.61 399.533 1851.86 346.512 1914.96 346.512C1941.49 346.512 1969.82 357.036 1986.31 378.965V351.075H2046.21V579.717H1986.31V552.268C1970.3 574.234 1941.49 584.279 1914.96 584.279C1851.86 584.279 1811.61 531.221 1811.61 465.396ZM1984.91 465.396C1984.91 429.705 1962.06 403.213 1930.49 403.213C1898.92 403.213 1873.79 429.742 1873.79 465.396C1873.79 501.05 1897.56 527.579 1930.49 527.579C1963.42 527.579 1984.91 501.97 1984.91 465.396Z" fill="white"/>
</mask>
<g mask="url(#mask5_30_230)">
<path d="M2778.76 244.969H557.87V777.166H2778.76V244.969Z" fill="#3A3A8C"/>
</g>
<path d="M2150.94 552.251V579.7H2092.88V278.83H2154.14V376.704C2170.63 357.056 2196.68 346.532 2223.21 346.532C2286.31 346.532 2327.45 399.59 2327.45 465.416C2327.45 531.241 2287.19 584.299 2224.09 584.299C2196.64 584.299 2167.83 574.254 2150.94 552.288V552.251ZM2265.26 465.379C2265.26 429.688 2241.5 403.196 2208.56 403.196C2175.63 403.196 2154.14 429.725 2154.14 465.379C2154.14 501.033 2177.47 527.562 2208.56 527.562C2241.5 527.562 2265.26 501.511 2265.26 465.379Z" fill="#3A3A8C"/>
<mask id="mask6_30_230" style="mask-type:luminance" maskUnits="userSpaceOnUse" x="2092" y="278" width="236" height="307">
<path d="M2150.96 552.251V579.7H2092.9V278.83H2154.16V376.704C2170.65 357.056 2196.7 346.532 2223.23 346.532C2286.33 346.532 2327.47 399.59 2327.47 465.416C2327.47 531.241 2287.21 584.299 2224.11 584.299C2196.66 584.299 2167.85 574.254 2150.96 552.288V552.251ZM2265.28 465.379C2265.28 429.688 2241.51 403.196 2208.58 403.196C2175.65 403.196 2154.16 429.725 2154.16 465.379C2154.16 501.033 2177.49 527.562 2208.58 527.562C2241.51 527.562 2265.28 501.511 2265.28 465.379Z" fill="white"/>
</mask>
<g mask="url(#mask6_30_230)">
<path d="M2778.78 244.965H557.897V777.163H2778.78V244.965Z" fill="#3A3A8C"/>
</g>
<path d="M2367.22 278.831H2428.49V579.7H2367.22V278.831Z" fill="#3A3A8C"/>
<mask id="mask7_30_230" style="mask-type:luminance" maskUnits="userSpaceOnUse" x="2367" y="278" width="62" height="302">
<path d="M2367.24 278.83H2428.5V579.7H2367.24V278.83Z" fill="white"/>
</mask>
<g mask="url(#mask7_30_230)">
<path d="M2778.79 244.966H557.904V777.163H2778.79V244.966Z" fill="#3A3A8C"/>
</g>
<path d="M2459.89 463.11C2459.89 397.248 2511.1 344.227 2578.33 344.227C2640.51 344.227 2689.45 397.284 2689.45 462.19C2689.45 473.155 2688.09 484.156 2688.09 484.156H2522.11C2529.43 515.689 2555.48 530.812 2585.65 530.812C2607.62 530.812 2630.47 524.41 2647.39 512.967L2670.24 556.863C2644.63 573.788 2614.9 581.993 2585.17 581.993C2518.39 581.993 2459.89 538.539 2459.89 463.11ZM2631.83 443.462C2627.26 414.651 2604.38 395.445 2576.49 395.445C2548.6 395.445 2527.11 414.651 2521.15 443.462H2631.83Z" fill="#3A3A8C"/>
<mask id="mask8_30_230" style="mask-type:luminance" maskUnits="userSpaceOnUse" x="2459" y="344" width="231" height="238">
<path d="M2459.9 463.106C2459.9 397.243 2511.12 344.222 2578.34 344.222C2640.53 344.222 2689.46 397.28 2689.46 462.186C2689.46 473.151 2688.1 484.152 2688.1 484.152H2522.12C2529.44 515.685 2555.49 530.808 2585.66 530.808C2607.63 530.808 2630.48 524.406 2647.41 512.963L2670.26 556.859C2644.65 573.784 2614.92 581.989 2585.19 581.989C2518.4 581.989 2459.9 538.535 2459.9 463.106ZM2631.84 443.457C2627.28 414.647 2604.39 395.441 2576.5 395.441C2548.61 395.441 2527.12 414.647 2521.16 443.457H2631.84Z" fill="white"/>
</mask>
<g mask="url(#mask8_30_230)">
<path d="M2777.21 235.808H556.327V768.005H2777.21V235.808Z" fill="#3A3A8C"/>
</g>
</svg>
